<?xml version="1.0" encoding="UTF-8"?>
<svg id="Layer_2" data-name="Layer 2" xmlns="http://www.w3.org/2000/svg" viewBox="0 0 34.71 48.54">
  <defs>
    <style>
      .cls-1 {
        fill: #fff;
      }
    </style>
  </defs>
  <g id="design">
    <path class="cls-1" d="M34.33,16.68L18.6,.41s0,0,0,0c-.04-.04-.09-.08-.14-.12-.02-.02-.04-.03-.06-.05-.07-.04-.14-.08-.21-.12,0,0-.01,0-.02-.01-.06-.02-.12-.04-.18-.06-.03,0-.05-.02-.08-.02-.04,0-.07,0-.11-.01-.05,0-.1-.02-.15-.02,0,0,0,0,0,0,0,0,0,0,0,0h0s-.05,0-.07,0c-.07,0-.13,0-.2,.02-.02,0-.03,.01-.05,.02-.07,.02-.13,.03-.2,.06-.03,.01-.06,.03-.09,.05-.05,.02-.09,.05-.14,.07-.04,.03-.08,.06-.11,.09-.03,.02-.06,.04-.08,.07L.41,16.12c-.54,.52-.55,1.38-.03,1.92,.52,.54,1.38,.55,1.92,.03L16.25,4.58l-.25,42.59c0,.75,.6,1.36,1.35,1.37h0c.75,0,1.35-.6,1.36-1.35l.25-42.49,13.42,13.87c.27,.28,.62,.41,.98,.41s.68-.13,.94-.38c.54-.52,.55-1.38,.03-1.92Z"/>
  </g>
</svg>