<svg width="22" height="24" viewBox="0 0 22 24" fill="none" xmlns="http://www.w3.org/2000/svg">
<path d="M2.13086 21.75C2.13086 22.3467 2.36791 22.919 2.78987 23.341C3.21183 23.7629 3.78412 24 4.38086 24H17.8809C18.4776 24 19.0499 23.7629 19.4718 23.341C19.8938 22.919 20.1309 22.3467 20.1309 21.75V6.00001H2.13086V21.75ZM14.8809 9.75C14.8809 9.55109 14.9599 9.36033 15.1005 9.21968C15.2412 9.07902 15.4319 9 15.6309 9C15.8298 9 16.0205 9.07902 16.1612 9.21968C16.3018 9.36033 16.3809 9.55109 16.3809 9.75V20.25C16.3809 20.4489 16.3018 20.6397 16.1612 20.7803C16.0205 20.921 15.8298 21 15.6309 21C15.4319 21 15.2412 20.921 15.1005 20.7803C14.9599 20.6397 14.8809 20.4489 14.8809 20.25V9.75ZM10.3809 9.75C10.3809 9.55109 10.4599 9.36033 10.6005 9.21968C10.7412 9.07902 10.9319 9 11.1309 9C11.3298 9 11.5205 9.07902 11.6612 9.21968C11.8018 9.36033 11.8809 9.55109 11.8809 9.75V20.25C11.8809 20.4489 11.8018 20.6397 11.6612 20.7803C11.5205 20.921 11.3298 21 11.1309 21C10.9319 21 10.7412 20.921 10.6005 20.7803C10.4599 20.6397 10.3809 20.4489 10.3809 20.25V9.75ZM5.88086 9.75C5.88086 9.55109 5.95988 9.36033 6.10053 9.21968C6.24118 9.07902 6.43194 9 6.63086 9C6.82977 9 7.02053 9.07902 7.16119 9.21968C7.30184 9.36033 7.38086 9.55109 7.38086 9.75V20.25C7.38086 20.4489 7.30184 20.6397 7.16119 20.7803C7.02053 20.921 6.82977 21 6.63086 21C6.43194 21 6.24118 20.921 6.10053 20.7803C5.95988 20.6397 5.88086 20.4489 5.88086 20.25V9.75ZM20.8809 1.50001H15.2559L14.8152 0.623446C14.7219 0.436046 14.5781 0.278409 14.4001 0.16827C14.222 0.0581305 14.0168 -0.000141936 13.8074 8.21846e-06H8.44961C8.24072 -0.000794775 8.03584 0.0572604 7.85842 0.167522C7.68101 0.277784 7.53824 0.435793 7.44648 0.623446L7.00586 1.50001H1.38086C1.18195 1.50001 0.991181 1.57903 0.850529 1.71968C0.709877 1.86033 0.630859 2.0511 0.630859 2.25001L0.630859 3.75001C0.630859 3.94892 0.709877 4.13968 0.850529 4.28034C0.991181 4.42099 1.18195 4.50001 1.38086 4.50001H20.8809C21.0798 4.50001 21.2705 4.42099 21.4112 4.28034C21.5518 4.13968 21.6309 3.94892 21.6309 3.75001V2.25001C21.6309 2.0511 21.5518 1.86033 21.4112 1.71968C21.2705 1.57903 21.0798 1.50001 20.8809 1.50001Z" fill="black"/>
</svg>
