<svg width="29" height="26" viewBox="0 0 29 26" fill="none" xmlns="http://www.w3.org/2000/svg">
<path d="M20.162 4.55841L24.5672 8.96357C24.7528 9.14915 24.7528 9.45194 24.5672 9.63753L13.9011 20.3037L9.36892 20.8067C8.76333 20.8751 8.25054 20.3623 8.31891 19.7567L8.82194 15.2246L19.4881 4.55841C19.6737 4.37283 19.9765 4.37283 20.162 4.55841ZM28.0737 3.44003L25.6905 1.05675C24.9481 0.314417 23.7418 0.314417 22.9946 1.05675L21.2658 2.7856C21.0802 2.97119 21.0802 3.27398 21.2658 3.45956L25.6709 7.86472C25.8565 8.0503 26.1593 8.0503 26.3449 7.86472L28.0737 6.13587C28.8161 5.38865 28.8161 4.18236 28.0737 3.44003ZM19.2537 17.4027V22.3744H3.62561V6.74634H14.8485C15.0048 6.74634 15.1513 6.68285 15.2636 6.57541L17.2171 4.6219C17.5883 4.25073 17.3246 3.62073 16.802 3.62073H2.84421C1.55001 3.62073 0.5 4.67074 0.5 5.96493V23.1558C0.5 24.45 1.55001 25.5 2.84421 25.5H20.0351C21.3293 25.5 22.3793 24.45 22.3793 23.1558V15.4492C22.3793 14.9266 21.7493 14.6678 21.3781 15.0341L19.4246 16.9876C19.3172 17.0999 19.2537 17.2464 19.2537 17.4027Z" fill="black"/>
</svg>
