<svg width="33" height="33" viewBox="0 0 33 33" fill="none" xmlns="http://www.w3.org/2000/svg">
<rect width="33" height="33" rx="16.5" fill="#EC7303"/>
<path d="M25.0801 19.6656C25.1614 19.225 25.1614 18.775 25.0801 18.3344L25.8865 17.8688C25.9802 17.8156 26.0209 17.7063 25.9896 17.6031C25.7802 16.9281 25.4208 16.3156 24.952 15.8094C24.8801 15.7313 24.7645 15.7125 24.6707 15.7656L23.8644 16.2313C23.5237 15.9406 23.1331 15.7156 22.7111 15.5656V14.6344C22.7111 14.5281 22.6361 14.4344 22.533 14.4125C21.836 14.2563 21.1266 14.2625 20.464 14.4125C20.3609 14.4344 20.2859 14.5281 20.2859 14.6344V15.5656C19.864 15.7156 19.4733 15.9406 19.1326 16.2313L18.3263 15.7656C18.2357 15.7125 18.1169 15.7313 18.045 15.8094C17.5762 16.3156 17.2168 16.9281 17.0074 17.6031C16.9762 17.7063 17.0199 17.8156 17.1105 17.8688L17.9169 18.3344C17.8356 18.775 17.8356 19.225 17.9169 19.6656L17.1105 20.1313C17.0168 20.1844 16.9762 20.2938 17.0074 20.3969C17.2168 21.0719 17.5762 21.6813 18.045 22.1906C18.1169 22.2688 18.2325 22.2875 18.3263 22.2344L19.1326 21.7688C19.4733 22.0594 19.864 22.2844 20.2859 22.4344V23.3656C20.2859 23.4719 20.3609 23.5656 20.464 23.5875C21.161 23.7438 21.8704 23.7375 22.533 23.5875C22.6361 23.5656 22.7111 23.4719 22.7111 23.3656V22.4344C23.1331 22.2844 23.5237 22.0594 23.8644 21.7688L24.6707 22.2344C24.7614 22.2875 24.8801 22.2688 24.952 22.1906C25.4208 21.6844 25.7802 21.0719 25.9896 20.3969C26.0209 20.2938 25.9771 20.1844 25.8865 20.1313L25.0801 19.6656ZM21.5016 20.5156C20.664 20.5156 19.9858 19.8344 19.9858 19C19.9858 18.1656 20.6672 17.4844 21.5016 17.4844C22.3361 17.4844 23.0174 18.1656 23.0174 19C23.0174 19.8344 22.3392 20.5156 21.5016 20.5156ZM13.0007 16C15.2103 16 17.0012 14.2094 17.0012 12C17.0012 9.79063 15.2103 8 13.0007 8C10.7911 8 9.00032 9.79063 9.00032 12C9.00032 14.2094 10.7911 16 13.0007 16ZM19.2889 23.0781C19.217 23.0406 19.1451 22.9969 19.0764 22.9563L18.8295 23.1C18.642 23.2063 18.4294 23.2656 18.2169 23.2656C17.8763 23.2656 17.5481 23.1219 17.3137 22.8719C16.7418 22.2531 16.3042 21.5 16.0573 20.6969C15.8854 20.1438 16.1167 19.5594 16.6167 19.2688L16.8636 19.125C16.8605 19.0438 16.8605 18.9625 16.8636 18.8813L16.6167 18.7375C16.1167 18.45 15.8854 17.8625 16.0573 17.3094C16.0854 17.2188 16.1261 17.1281 16.1573 17.0375C16.0386 17.0281 15.9229 17 15.801 17H15.2791C14.5853 17.3188 13.8133 17.5 13.0007 17.5C12.1882 17.5 11.4193 17.3188 10.7224 17H10.2004C7.88145 17 6 18.8813 6 21.2V22.5C6 23.3281 6.67195 24 7.50016 24H18.5013C18.817 24 19.1108 23.9 19.3514 23.7344C19.3139 23.6156 19.2889 23.4938 19.2889 23.3656V23.0781Z" fill="white"/>
</svg>
