<?xml version="1.0" encoding="UTF-8"?>
<svg id="Layer_2" data-name="Layer 2" xmlns="http://www.w3.org/2000/svg" viewBox="0 0 30 30">
  <defs>
    <style>
      .cls-1 {
        fill: #fff;
      }

      .cls-2 {
        fill: #ff3a71;
      }

      .cls-3 {
        fill: #8638c6;
      }

      .cls-4 {
        fill: #fb3593;
      }

      .cls-5 {
        fill: #ff8c01;
      }

      .cls-6 {
        fill: #ff7501;
      }

      .cls-7 {
        fill: #a035bf;
      }

      .cls-8 {
        fill: #fe4c2b;
      }

      .cls-9 {
        fill: #df35a5;
      }

      .cls-10 {
        fill: #ff9b04;
      }

      .cls-11 {
        fill: #7238ce;
      }

      .cls-12 {
        fill: #ff6804;
      }

      .cls-13 {
        fill: #ff5a17;
      }

      .cls-14 {
        fill: #be37b5;
      }

      .cls-15 {
        fill: #ff3f43;
      }
    </style>
  </defs>
  <g id="design">
    <g id="instagram">
      <path class="cls-11" d="M29.4,5.23c-.33-.36-3.73-.5-4.4-1.07-.95-.8-.52-3.28-1.53-3.97,2.71,.6,4.92,2.51,5.93,5.03Z"/>
      <path class="cls-3" d="M29.4,8.03l.6,1.13v1.05c-1.05-1.43-8.72-8.21-11.91-9.72l1.66-.49h1.92c.62,0,1.23,.07,1.81,.2,1.72,1.17,3.36,2.49,4.9,3.99,.35,.34,.69,.68,1.02,1.04,.19,.46,.33,.94,.43,1.43,0,0-.43,.8-.43,1.37Z"/>
      <path class="cls-7" d="M30,10.22v5.08C28.63,12.77,15.08,1.55,9,.09c-.15-.04-.24,.03-.38,0l.3-.09h7.93l.86,.42c1.08,.51,2.03,.66,3.06,1.3,2.01,1.24,3.92,2.72,5.68,4.44,1.31,1.27,2.49,2.63,3.54,4.06Z"/>
      <path class="cls-14" d="M30,15.3s-.02,7.24-.04,7.2C28.72,17.93,2.75,2.32,2.55,2.34,3.55,1.37,4.8,.65,6.18,.28c0,0,1.41,.55,2.15,.55,0,0,.49-.79,.62-.76,5.69,1.04,11.14,3.71,15.59,8.05,2.23,2.17,4.04,4.59,5.45,7.18Z"/>
      <path class="cls-9" d="M29.96,22.5c-.17,1.72-.86,3.28-1.92,4.53C27.44,21.53,1.46,5.12,.6,5.23c.44-1.1,1.11-2.08,1.95-2.88,.2-.02,.4-.03,.6-.03,7.01-.09,14.06,2.48,19.48,7.77,3.64,3.54,6.08,7.84,7.33,12.42Z"/>
      <path class="cls-4" d="M28.04,27.03h0c-.72,.87-1.61,1.57-2.62,2.07C25.28,23.6,2.24,7.82,1.17,8c.01-.48-1.1-.87-1-1.33,.1-.5,.25-.98,.43-1.44,.86-.1,1.72-.16,2.58-.17,6.32-.08,12.66,2.23,17.54,6.99,4.28,4.16,6.72,9.48,7.32,14.97Z"/>
      <path class="cls-2" d="M22.7,29.93S1.08,10.67,0,10.87v-1.7l.73-1.1c1.07-.18,1.42-.25,2.49-.27,5.61-.08,11.25,1.99,15.58,6.21,4.26,4.14,6.48,9.59,6.62,15.09-.83,.43-1.75,.72-2.73,.83Z"/>
      <path class="cls-15" d="M22.7,29.47v.47c-.33,.04-.68,.07-1.03,.07h-1.72c0-.17-18.87-16.57-19.95-16.34v-2.79c1.07-.2,2.17-.31,3.26-.32,4.91-.07,9.84,1.74,13.64,5.43,3.8,3.7,5.73,8.58,5.8,13.49Z"/>
      <path class="cls-8" d="M19.96,29.5c0,.17,0,.33,0,.5h-2.74c0-.16-1.07-.54-1.07-.69-.04-3.51-11.64-14.03-16.14-12.84v-2.82c1.08-.23,2.19-.36,3.29-.38,4.21-.06,8.44,1.49,11.7,4.66,3.25,3.17,4.92,7.35,4.97,11.56Z"/>
      <path class="cls-13" d="M17.22,29.54c0,.15,0,.3,0,.46h-2.73c0-.14-.96-.82-.96-.96-.04-2.8-9.74-10.97-13.51-9.71v-2.86c4.5-1.19,9.49-.06,13.07,3.43,2.72,2.64,4.1,6.13,4.14,9.64Z"/>
      <path class="cls-12" d="M14.48,29.58c0,.14,0,.28,0,.42h-2.74c.08-2.23-8.7-9.13-11.71-7.72,0,0-.02-2.95-.02-2.95,3.78-1.27,8.12-.44,11.17,2.53,2.17,2.12,3.28,4.91,3.32,7.71Z"/>
      <path class="cls-6" d="M8.98,30c.08-1.52-6.2-6.23-8.28-4.98-.37-.85-.62-1.77-.68-2.74,3.01-1.42,6.71-.91,9.23,1.55,1.73,1.68,2.56,3.93,2.48,6.17h-2.75Z"/>
      <path class="cls-5" d="M8.98,30h-.65c-.72,0-1.41-.09-2.07-.27,0-.72-3.02-2.97-4.04-2.42-.62-.67-1.13-1.44-1.51-2.29,2.08-1.25,4.82-1,6.63,.78,1.17,1.14,1.72,2.68,1.64,4.2Z"/>
      <path class="cls-10" d="M6.26,29.73c-1.58-.4-2.97-1.25-4.04-2.42,1.02-.56,2.33-.41,3.21,.44,.56,.54,.83,1.26,.83,1.98Z"/>
      <path class="cls-1" d="M30,8.33v.83H0v-.83c0-.57,.06-1.13,.17-1.67H9.91L6.18,.28c.68-.18,1.41-.28,2.15-.28h.58l3.88,6.67h7.94L16.85,0h2.9l3.88,6.67h6.2c.11,.53,.17,1.09,.17,1.67Z"/>
      <path class="cls-1" d="M10,22.59v-7.69c0-1.28,1.39-2.09,2.5-1.44l6.67,3.85c1.11,.64,1.11,2.25,0,2.89l-6.67,3.84c-1.11,.64-2.5-.16-2.5-1.44Z"/>
    </g>
  </g>
</svg>