<?xml version="1.0" encoding="UTF-8"?>
<svg id="Layer_2" data-name="Layer 2" xmlns="http://www.w3.org/2000/svg" viewBox="0 0 48.78 48.78">
  <defs>
    <style>
      .cls-1, .cls-2 {
        fill: #fff;
      }

      .cls-2 {
        font-family: Cafe24SsurroundOTF-KSCpc-EUC-H, 'Cafe24 Ssurround OTF';
        font-size: 11.33px;
      }

      .cls-3 {
        fill: #f77103;
      }

      .cls-4 {
        fill: none;
      }

      .cls-5 {
        fill: #d1d3d4;
      }
    </style>
  </defs>
  <g id="gnb_2depth">
    <g id="logo_" data-name="logo&amp;gt;">
      <rect class="cls-5" x="13.52" y="34.95" width="22.08" height="1.59"/>
      <path class="cls-3" d="M40.99,17.95c0,3-2.11,5.48-5.42,5.7v11.59H13.53v-11.63c-3.09-.41-4.6-2.79-4.6-5.66,0-3.16,2.01-5.7,5.55-5.7,.93,0,1.81,.18,2.6,.49-.03-.18-.05-.35-.05-.53,0-2.66,3.36-4.82,7.52-4.82s7.52,2.16,7.52,4.82c0,.25-.03,.5-.09,.75,.91-.45,1.97-.7,3.08-.7,3.54,0,5.92,2.55,5.92,5.7Z"/>
      <text class="cls-2" transform="translate(8.07 32.07)"><tspan x="0" y="0">DODO</tspan></text>
      <g>
        <path class="cls-1" d="M13.4,22.73c-.14-.39,.04-.76,.51-.92,.39-.13,.73-.02,.84,.27-.16,.05-.23,.07-.39,.12-.07-.12-.19-.18-.35-.13-.2,.07-.28,.25-.2,.5,.09,.25,.26,.35,.46,.28,.14-.05,.22-.16,.2-.3,.15-.05,.23-.07,.38-.12,.07,.3-.11,.58-.5,.71-.45,.15-.82-.02-.96-.41Z"/>
        <path class="cls-1" d="M15,22.2c-.12-.4,.09-.76,.55-.89,.47-.13,.83,.07,.94,.48,.1,.41-.11,.75-.56,.88-.45,.12-.81-.06-.93-.46Zm1.07-.3c-.06-.23-.22-.38-.43-.32-.22,.06-.28,.27-.22,.5,.07,.23,.23,.37,.44,.31,.21-.06,.27-.26,.21-.49Z"/>
        <path class="cls-1" d="M17.48,21.14c-.12,.03-.19,.04-.31,.07,.1,.42,.14,.63,.24,1.06-.16,.04-.25,.06-.41,.1-.1-.42-.15-.63-.25-1.05-.09,.02-.13,.03-.22,.05-.03-.11-.04-.16-.07-.27,.09-.02,.13-.03,.22-.05l-.02-.1c-.07-.28,.1-.47,.42-.54,.1-.02,.18-.03,.26-.03,.02,.11,.04,.16,.06,.27-.06,0-.11,.02-.13,.02-.14,.03-.2,.09-.18,.2,0,.03,.01,.05,.02,.08,.12-.03,.19-.04,.31-.07,.02,.11,.04,.16,.06,.27Z"/>
        <path class="cls-1" d="M18.56,20.92c-.12,.02-.19,.03-.31,.06,.08,.42,.12,.64,.2,1.06-.16,.03-.25,.05-.41,.08-.09-.42-.13-.64-.22-1.06-.09,.02-.13,.03-.22,.05-.02-.11-.04-.16-.06-.27,.09-.02,.13-.03,.22-.05,0-.04-.01-.06-.02-.1-.06-.28,.11-.47,.44-.53,.1-.02,.18-.03,.26-.03,.02,.11,.03,.17,.05,.28-.06,0-.11,.01-.13,.02-.14,.03-.2,.09-.18,.2,0,.03,0,.05,.02,.08,.12-.02,.19-.04,.31-.06,.02,.11,.03,.16,.05,.27Z"/>
        <path class="cls-1" d="M18.76,21.3c-.07-.41,.17-.75,.64-.82,.42-.06,.77,.12,.83,.58,0,.04,0,.06,.01,.1-.42,.06-.63,.09-1.06,.16,.03,.2,.19,.31,.41,.27,.14-.02,.23-.09,.26-.18,.16-.02,.24-.03,.4-.06-.03,.26-.26,.45-.63,.51-.46,.07-.79-.14-.87-.57Zm1.05-.32c-.02-.16-.17-.26-.36-.23-.2,.03-.32,.18-.3,.33,.26-.04,.4-.06,.66-.1Z"/>
        <path class="cls-1" d="M20.44,21.05c-.05-.42,.21-.74,.68-.79,.42-.04,.76,.16,.8,.62,0,.04,0,.06,0,.11-.42,.03-.64,.05-1.06,.1,.02,.2,.18,.31,.39,.29,.14-.01,.24-.08,.27-.17,.16-.02,.24-.02,.4-.04-.04,.25-.28,.44-.65,.48-.47,.05-.79-.18-.84-.61Zm1.07-.26c-.02-.16-.16-.27-.35-.25-.2,.02-.32,.16-.31,.32,.27-.03,.4-.04,.67-.07Z"/>
        <path class="cls-1" d="M22.81,21.03c-.01-.21,.14-.35,.36-.49-.12-.12-.22-.25-.22-.41-.01-.26,.21-.48,.56-.49,.35-.01,.56,.18,.56,.41,0,.17-.1,.31-.27,.42-.05,.03-.07,.05-.12,.08,.14,.14,.22,.2,.36,.34,.05-.09,.08-.2,.08-.31,.14,0,.21,0,.36,0,0,.25-.07,.44-.18,.57,.12,.12,.19,.19,.31,.31-.17,0-.26,0-.44,0-.05-.05-.08-.07-.13-.12-.15,.11-.34,.16-.52,.17-.42,.01-.69-.19-.71-.48Zm.72,.18c.1,0,.19-.03,.28-.08-.16-.15-.24-.23-.41-.38,0,0,0,0-.01,.01-.12,.08-.17,.16-.16,.23,0,.13,.13,.22,.31,.22Zm-.06-.86s.07-.04,.11-.07c.1-.06,.15-.12,.15-.2,0-.07-.07-.14-.2-.14-.12,0-.21,.08-.2,.18,0,.08,.06,.15,.15,.23Z"/>
        <path class="cls-1" d="M25.39,20.79c.01-.47,.31-.69,.67-.68,.27,.01,.39,.16,.44,.27,0,0,0,0,.01,0,.02-.27,.02-.41,.04-.68,.18,.01,.26,.02,.44,.03-.05,.72-.08,1.09-.13,1.81-.16-.01-.25-.02-.41-.03,0-.09,0-.13,.01-.22,0,0-.01,0-.02,0-.07,.11-.2,.23-.45,.22-.35-.02-.62-.27-.6-.72Zm1.1,.04c.01-.25-.1-.41-.31-.42-.22-.01-.34,.15-.35,.39,0,.24,.1,.41,.31,.42,.21,.01,.34-.15,.35-.39Z"/>
        <path class="cls-1" d="M27.19,20.89c.03-.42,.36-.68,.82-.63,.42,.04,.72,.31,.66,.77,0,.04,0,.06-.01,.1-.42-.05-.64-.08-1.06-.12-.02,.2,.11,.34,.32,.37,.14,.01,.25-.03,.3-.11,.16,.02,.24,.03,.4,.05-.09,.24-.36,.37-.74,.33-.47-.05-.73-.34-.7-.77Zm1.1-.04c.02-.16-.1-.3-.29-.32-.2-.02-.35,.09-.37,.25,.27,.02,.4,.04,.67,.07Z"/>
        <path class="cls-1" d="M29.63,20.73c-.14-.02-.25,.02-.26,.1,0,.06,.04,.11,.18,.16,.11,.04,.16,.06,.27,.09,.29,.1,.42,.25,.38,.44-.05,.26-.35,.39-.75,.33-.41-.06-.63-.26-.63-.52,.17,.02,.25,.03,.42,.06,0,.11,.1,.18,.25,.2,.15,.02,.26-.01,.28-.1,.01-.07-.05-.12-.19-.17-.1-.03-.15-.05-.25-.08-.29-.09-.42-.25-.39-.44,.03-.26,.32-.39,.72-.32,.4,.06,.62,.27,.6,.52-.16-.03-.24-.04-.4-.07,0-.1-.09-.17-.23-.2Z"/>
        <path class="cls-1" d="M31.22,21.02c-.14-.03-.25,.01-.27,.09-.01,.06,.03,.12,.17,.17,.11,.04,.16,.06,.27,.11,.29,.12,.41,.27,.36,.46-.06,.26-.37,.38-.77,.29-.41-.08-.62-.29-.6-.56,.17,.03,.25,.05,.42,.08,0,.11,.09,.18,.24,.21,.15,.03,.26,0,.28-.09,.01-.07-.04-.12-.18-.18-.1-.04-.15-.06-.25-.1-.28-.11-.41-.27-.37-.46,.05-.25,.33-.37,.74-.29,.4,.08,.61,.3,.57,.55-.16-.04-.24-.05-.4-.09,0-.1-.08-.18-.22-.21Z"/>
        <path class="cls-1" d="M32.01,21.64c.1-.41,.46-.62,.91-.5,.41,.11,.67,.41,.54,.86-.01,.04-.02,.06-.03,.1-.41-.12-.62-.17-1.04-.27-.05,.2,.06,.36,.27,.41,.14,.04,.25,0,.31-.06,.16,.04,.23,.06,.39,.11-.12,.23-.42,.31-.78,.22-.46-.12-.68-.44-.58-.86Zm1.1,.13c.04-.16-.06-.31-.25-.36-.19-.05-.36,.04-.41,.19,.26,.06,.39,.1,.65,.17Z"/>
        <path class="cls-1" d="M33.91,21.43c.16,.05,.24,.07,.41,.12-.03,.09-.04,.14-.07,.23h.02c.1-.14,.27-.18,.45-.12,.04,.01,.09,.04,.13,.05-.04,.13-.06,.19-.1,.31-.04-.02-.11-.06-.17-.08-.19-.06-.36,.01-.41,.17-.09,.3-.14,.44-.23,.74-.16-.05-.24-.07-.4-.12,.15-.52,.23-.78,.38-1.31Z"/>
        <path class="cls-1" d="M35.83,22.34c-.11-.04-.17-.06-.28-.1-.09,.25-.13,.38-.22,.63-.04,.1,.01,.15,.09,.18,.04,.01,.11,.04,.16,.05-.04,.11-.06,.17-.1,.28-.05,0-.12-.03-.22-.06-.29-.1-.45-.28-.36-.53,.09-.27,.14-.41,.23-.68-.08-.03-.13-.04-.21-.07,.03-.11,.05-.16,.09-.26,.08,.03,.13,.04,.21,.07,.04-.12,.06-.19,.1-.31,.17,.06,.25,.08,.42,.14l-.11,.31c.11,.04,.17,.06,.29,.1-.04,.1-.06,.16-.09,.26Z"/>
      </g>
      <g>
        <ellipse class="cls-1" cx="21.3" cy="15.68" rx="1.63" ry="2.6"/>
        <ellipse cx="20.58" cy="16.58" rx=".73" ry="1.38"/>
      </g>
      <g>
        <ellipse class="cls-1" cx="27.54" cy="15.68" rx="1.63" ry="2.6"/>
        <ellipse cx="26.82" cy="16.58" rx=".73" ry="1.38"/>
      </g>
      <ellipse cx="23.26" cy="18.31" rx=".26" ry=".52"/>
      <ellipse cx="25.38" cy="18.28" rx=".28" ry=".54"/>
      <rect class="cls-4" x="0" y="0" width="48.78" height="48.78"/>
    </g>
  </g>
</svg>