<?xml version="1.0" encoding="UTF-8"?>
<svg id="Layer_2" data-name="Layer 2" xmlns="http://www.w3.org/2000/svg" viewBox="0 0 90 90">
  <defs>
    <style>
      .cls-1 {
        fill: #fff;
      }

      .cls-2 {
        fill: #f77103;
      }

      .cls-3 {
        fill: none;
      }

      .cls-4 {
        fill: #d1d3d4;
      }

      .cls-5 {
        fill: #231f20;
        font-family: Cafe24SsurroundOTF-KSCpc-EUC-H, 'Cafe24 Ssurround OTF';
        font-size: 20.9px;
      }
    </style>
  </defs>
  <g id="design">
    <g id="logo_" data-name="logo&amp;gt;">
      <rect class="cls-4" x="24.94" y="64.49" width="40.74" height="2.93"/>
      <path class="cls-2" d="M75.63,33.12c0,5.54-3.9,10.11-10,10.52v21.38H24.97v-21.46c-5.7-.75-8.49-5.15-8.49-10.44,0-5.82,3.71-10.52,10.25-10.52,1.71,0,3.33,.32,4.81,.91-.06-.32-.09-.65-.09-.98,0-4.91,6.21-8.9,13.87-8.9s13.87,3.99,13.87,8.9c0,.47-.05,.93-.16,1.38,1.69-.83,3.63-1.3,5.69-1.3,6.54,0,10.92,4.7,10.92,10.52Z"/>
      <text class="cls-5" transform="translate(14.89 59.17)"><tspan x="0" y="0">DODO</tspan></text>
      <g>
        <path class="cls-1" d="M24.73,41.94c-.26-.72,.08-1.41,.95-1.7,.73-.24,1.34-.03,1.54,.5-.29,.09-.43,.13-.72,.23-.12-.22-.36-.33-.65-.23-.37,.12-.52,.47-.36,.92,.16,.46,.48,.64,.84,.52,.26-.09,.41-.29,.38-.56,.28-.09,.42-.14,.71-.22,.13,.55-.2,1.07-.92,1.31-.83,.28-1.51-.04-1.77-.76Z"/>
        <path class="cls-1" d="M27.67,40.97c-.23-.74,.16-1.41,1.03-1.65,.87-.24,1.54,.13,1.73,.88,.19,.75-.21,1.39-1.04,1.62-.83,.23-1.49-.11-1.72-.85Zm1.97-.56c-.11-.43-.4-.69-.8-.58-.4,.11-.52,.49-.4,.92,.12,.42,.42,.68,.81,.57,.39-.11,.5-.48,.39-.9Z"/>
        <path class="cls-1" d="M32.25,39c-.23,.05-.34,.07-.57,.13,.18,.78,.27,1.17,.44,1.95-.3,.07-.45,.1-.76,.18-.19-.78-.28-1.17-.47-1.94-.16,.04-.24,.06-.41,.1-.05-.2-.07-.3-.12-.5,.16-.04,.24-.06,.41-.1-.02-.07-.03-.11-.04-.18-.12-.51,.18-.87,.77-1.01,.18-.04,.34-.06,.48-.06,.04,.2,.07,.3,.11,.51-.11,.02-.2,.03-.24,.04-.26,.06-.37,.17-.33,.38,.01,.06,.02,.09,.03,.15,.23-.05,.34-.08,.57-.13,.04,.2,.07,.3,.11,.5Z"/>
        <path class="cls-1" d="M34.24,38.6c-.23,.04-.34,.06-.57,.11,.15,.78,.23,1.18,.38,1.96-.3,.06-.46,.09-.76,.15-.16-.78-.24-1.17-.4-1.96-.16,.03-.24,.05-.41,.09-.04-.2-.06-.3-.11-.5,.16-.04,.25-.05,.41-.09-.02-.07-.02-.11-.04-.19-.11-.52,.21-.87,.8-.98,.18-.04,.34-.05,.49-.05,.04,.2,.06,.31,.09,.51-.12,.01-.2,.02-.25,.03-.26,.05-.38,.16-.34,.37,.01,.06,.02,.09,.03,.15,.23-.04,.35-.07,.58-.11,.04,.2,.06,.3,.09,.5Z"/>
        <path class="cls-1" d="M34.61,39.3c-.14-.76,.32-1.38,1.18-1.51,.77-.12,1.43,.22,1.54,1.06,.01,.08,.02,.12,.03,.19-.78,.1-1.17,.16-1.95,.29,.06,.37,.36,.56,.75,.5,.26-.04,.43-.17,.49-.33,.3-.04,.44-.06,.74-.1-.05,.47-.47,.84-1.16,.94-.86,.13-1.47-.26-1.61-1.04Zm1.95-.58c-.04-.3-.32-.48-.67-.43-.36,.06-.58,.33-.55,.62,.49-.08,.73-.12,1.22-.19Z"/>
        <path class="cls-1" d="M37.71,38.83c-.1-.77,.39-1.36,1.25-1.45,.77-.08,1.41,.29,1.48,1.14,0,.08,0,.12,.02,.19-.79,.06-1.18,.1-1.96,.19,.04,.38,.33,.58,.72,.54,.26-.03,.44-.15,.5-.3,.3-.03,.45-.04,.74-.06-.07,.47-.52,.81-1.21,.88-.86,.09-1.45-.34-1.55-1.13Zm1.97-.48c-.03-.3-.3-.5-.65-.46-.36,.04-.6,.3-.58,.59,.49-.06,.74-.08,1.23-.13Z"/>
        <path class="cls-1" d="M42.09,38.8c-.02-.39,.25-.64,.67-.91-.22-.21-.4-.45-.41-.75-.02-.48,.39-.88,1.04-.9,.64-.02,1.04,.34,1.04,.76,0,.32-.18,.57-.5,.78-.09,.06-.13,.09-.22,.15,.27,.25,.4,.38,.66,.63,.09-.17,.15-.36,.15-.58,.26,0,.39,0,.66,0,0,.46-.13,.8-.34,1.05,.23,.23,.35,.34,.57,.58-.32,0-.48,0-.81,0-.09-.09-.14-.14-.23-.23-.28,.2-.63,.29-.96,.31-.78,.02-1.28-.36-1.31-.88Zm1.33,.33c.18,0,.35-.06,.52-.15-.3-.28-.45-.42-.76-.7-.01,0-.02,.01-.03,.02-.21,.15-.31,.3-.3,.43,0,.24,.23,.41,.57,.4Zm-.11-1.58c.08-.05,.12-.07,.2-.12,.19-.11,.28-.23,.28-.38,0-.13-.14-.27-.37-.26-.23,0-.38,.16-.38,.33,0,.14,.11,.28,.27,.43Z"/>
        <path class="cls-1" d="M46.85,38.36c.02-.86,.58-1.28,1.23-1.25,.49,.02,.71,.29,.81,.5,.01,0,.02,0,.03,0,.03-.5,.04-.75,.07-1.26,.33,.02,.49,.03,.81,.05-.1,1.34-.14,2-.24,3.34-.3-.02-.46-.03-.76-.05,0-.16,.01-.24,.02-.4-.01,0-.02,0-.04,0-.12,.2-.37,.42-.83,.4-.65-.03-1.14-.5-1.12-1.33Zm2.04,.08c.03-.45-.18-.75-.58-.77-.4-.02-.63,.27-.65,.71-.02,.44,.18,.76,.57,.78,.39,.02,.63-.27,.65-.72Z"/>
        <path class="cls-1" d="M50.16,38.55c.06-.77,.66-1.25,1.52-1.17,.77,.08,1.33,.57,1.22,1.42l-.02,.19c-.78-.1-1.17-.14-1.96-.21-.04,.38,.2,.64,.6,.68,.26,.03,.46-.05,.56-.19,.3,.03,.44,.05,.74,.09-.17,.44-.67,.69-1.36,.62-.86-.09-1.35-.63-1.29-1.42Zm2.03-.07c.03-.3-.19-.55-.54-.58-.37-.04-.65,.17-.69,.46,.49,.05,.74,.07,1.23,.13Z"/>
        <path class="cls-1" d="M54.68,38.26c-.26-.04-.46,.04-.49,.19-.02,.11,.07,.21,.33,.3,.2,.07,.3,.1,.5,.17,.54,.19,.77,.46,.71,.81-.08,.48-.64,.73-1.38,.61s-1.16-.47-1.16-.97c.31,.04,.47,.06,.78,.11,0,.2,.17,.33,.46,.37,.28,.04,.48-.03,.51-.19,.02-.13-.09-.23-.35-.32-.18-.06-.28-.09-.46-.15-.53-.17-.78-.46-.73-.82,.06-.47,.58-.71,1.34-.6,.74,.11,1.14,.49,1.1,.97-.29-.05-.44-.08-.74-.12,0-.18-.17-.32-.43-.36Z"/>
        <path class="cls-1" d="M57.61,38.78c-.25-.05-.47,.02-.5,.16-.02,.1,.06,.21,.32,.32,.2,.08,.29,.12,.49,.2,.53,.22,.75,.5,.67,.84-.11,.48-.68,.69-1.42,.54-.75-.15-1.14-.53-1.12-1.02,.31,.06,.47,.09,.78,.15,0,.2,.16,.34,.44,.39,.28,.06,.49,0,.52-.16,.03-.13-.08-.23-.33-.33-.18-.07-.27-.11-.45-.18-.52-.2-.75-.5-.69-.86,.09-.47,.62-.68,1.37-.53,.73,.15,1.12,.55,1.06,1.02-.29-.07-.44-.1-.73-.16,0-.18-.15-.33-.41-.38Z"/>
        <path class="cls-1" d="M59.06,39.93c.18-.76,.84-1.14,1.69-.93,.76,.19,1.24,.76,1,1.59-.02,.07-.03,.11-.05,.19-.76-.21-1.15-.32-1.92-.5-.09,.37,.1,.66,.49,.76,.26,.07,.47,.02,.58-.11,.29,.08,.43,.12,.72,.2-.23,.42-.77,.58-1.45,.4-.84-.22-1.25-.82-1.07-1.59Zm2.03,.23c.08-.29-.11-.57-.45-.66-.36-.09-.67,.07-.75,.35,.48,.12,.72,.18,1.2,.31Z"/>
        <path class="cls-1" d="M62.57,39.53c.3,.09,.45,.13,.75,.22-.05,.17-.08,.25-.13,.42,.01,0,.02,0,.03,0,.19-.27,.5-.34,.82-.24,.08,.02,.18,.07,.24,.1-.07,.23-.11,.35-.19,.58-.07-.04-.21-.1-.32-.14-.35-.11-.67,.02-.75,.31-.17,.55-.25,.82-.42,1.37-.3-.09-.45-.13-.75-.22l.7-2.41Z"/>
        <path class="cls-1" d="M66.11,41.22c-.21-.08-.31-.11-.52-.19-.16,.46-.24,.69-.4,1.16-.07,.19,.02,.28,.17,.33,.07,.03,.21,.07,.3,.09-.07,.2-.11,.31-.18,.51-.08-.02-.22-.05-.4-.12-.53-.19-.83-.52-.67-.98,.17-.5,.25-.75,.42-1.25-.16-.05-.23-.08-.39-.13,.06-.2,.1-.29,.16-.49,.16,.05,.24,.08,.39,.13,.08-.23,.11-.34,.19-.57,.31,.1,.47,.16,.78,.27-.08,.23-.12,.34-.2,.57,.21,.07,.32,.11,.53,.19-.07,.19-.1,.29-.17,.48Z"/>
      </g>
      <g>
        <ellipse class="cls-1" cx="39.3" cy="28.92" rx="3.01" ry="4.8"/>
        <ellipse cx="37.96" cy="30.59" rx="1.34" ry="2.54"/>
      </g>
      <g>
        <ellipse class="cls-1" cx="50.82" cy="28.92" rx="3.01" ry="4.8"/>
        <ellipse cx="49.48" cy="30.59" rx="1.34" ry="2.54"/>
      </g>
      <ellipse cx="42.92" cy="33.79" rx=".48" ry=".96"/>
      <ellipse cx="46.84" cy="33.73" rx=".51" ry=".99"/>
      <rect class="cls-3" y="0" width="90" height="90"/>
    </g>
  </g>
</svg>