<?xml version="1.0" encoding="UTF-8"?>
<svg id="Layer_2" data-name="Layer 2" xmlns="http://www.w3.org/2000/svg" viewBox="0 0 30 30">
  <defs>
    <style>
      .cls-1 {
        fill: #fff;
      }

      .cls-1, .cls-2, .cls-3, .cls-4 {
        fill-rule: evenodd;
      }

      .cls-2 {
        fill: #212121;
      }

      .cls-3 {
        fill: #ec407a;
      }

      .cls-4 {
        fill: #81d4fa;
      }
    </style>
  </defs>
  <g id="design">
    <g id="tiktok">
      <path class="cls-2" d="M4.09,0H25.91c2.26,0,4.09,1.83,4.09,4.09V25.91c0,2.26-1.83,4.09-4.09,4.09H4.09c-2.26,0-4.09-1.83-4.09-4.09V4.09C0,1.83,1.83,0,4.09,0Z"/>
      <path class="cls-3" d="M19.34,12.17c1.31,.94,2.92,1.49,4.66,1.49v-3.34c-.33,0-.66-.03-.98-.1v2.63c-1.74,0-3.35-.55-4.66-1.49v6.82c0,3.41-2.77,6.18-6.18,6.18-1.27,0-2.46-.39-3.44-1.05,1.12,1.15,2.69,1.86,4.42,1.86,3.41,0,6.18-2.77,6.18-6.18v-6.82h0Zm1.21-3.37c-.67-.73-1.11-1.68-1.21-2.73v-.43h-.93c.23,1.33,1.03,2.47,2.14,3.16h0Zm-9.65,11.89c-.38-.49-.58-1.09-.58-1.71,0-1.56,1.27-2.83,2.83-2.83,.29,0,.58,.04,.86,.13v-3.42c-.32-.04-.65-.06-.98-.06v2.66c-.28-.09-.57-.13-.86-.13-1.56,0-2.83,1.26-2.83,2.83,0,1.1,.63,2.06,1.56,2.53Z"/>
      <path class="cls-1" d="M18.36,11.36c1.31,.94,2.92,1.49,4.66,1.49v-2.63c-.97-.21-1.83-.71-2.47-1.42-1.11-.69-1.9-1.83-2.13-3.16h-2.44v13.35c0,1.56-1.27,2.82-2.83,2.82-.92,0-1.73-.44-2.25-1.11-.92-.47-1.55-1.42-1.55-2.52,0-1.56,1.27-2.83,2.83-2.83,.3,0,.59,.05,.86,.13v-2.66c-3.35,.07-6.05,2.81-6.05,6.18,0,1.68,.67,3.21,1.76,4.32,.98,.66,2.17,1.05,3.44,1.05,3.41,0,6.18-2.77,6.18-6.18v-6.82h0Z"/>
      <path class="cls-4" d="M23.02,10.22v-.71c-.87,0-1.73-.24-2.47-.71,.66,.72,1.52,1.22,2.47,1.42Zm-4.61-4.57c-.02-.13-.04-.25-.05-.38v-.43h-3.36v13.35c0,1.56-1.27,2.82-2.83,2.82-.46,0-.89-.11-1.27-.3,.52,.68,1.33,1.11,2.25,1.11,1.56,0,2.82-1.26,2.83-2.82V5.64h2.44Zm-5.38,7.17v-.76c-.28-.04-.56-.06-.85-.06-3.41,0-6.18,2.77-6.18,6.18,0,2.14,1.09,4.02,2.74,5.13-1.09-1.11-1.76-2.64-1.76-4.32,0-3.37,2.7-6.11,6.05-6.18Z"/>
    </g>
  </g>
</svg>